<?xml version="1.0" encoding="UTF-8" standalone="no"?>
<!DOCTYPE svg PUBLIC "-//W3C//DTD SVG 1.1//EN" "http://www.w3.org/Graphics/SVG/1.1/DTD/svg11.dtd">
<svg version="1.1" 
    xmlns="http://www.w3.org/2000/svg" 
    xmlns:xlink="http://www.w3.org/1999/xlink" preserveAspectRatio="xMidYMid meet" viewBox="0 0 500 500">
    <defs>
        <path d="M313.9 27.43L315.11 28.23L316.75 29.34L318.79 30.76L321.21 32.49L323.97 34.53L327.04 36.86L330.4 39.5L334.02 42.43L337.87 45.66L341.91 49.17L346.12 52.97L350.48 57.06L354.94 61.42L359.49 66.07L364.08 70.99L368.7 76.18L373.32 81.64L377.9 87.37L382.41 93.36L386.83 99.61L391.13 106.12L395.28 112.88L399.24 119.89L402.99 127.16L406.51 134.66L409.75 142.41L412.7 150.4L415.32 158.62L417.58 167.08L419.46 175.77L420.92 184.69L421.93 193.83L422.48 203.19L422.52 212.77L422.03 222.57L420.97 232.58L419.33 242.79L417.07 253.22L417.69 254.7L418.28 256.23L418.84 257.81L419.38 259.44L419.87 261.11L420.33 262.84L420.75 264.61L421.12 266.42L421.44 268.29L421.7 270.2L421.92 272.15L422.07 274.15L422.15 276.2L422.18 278.29L422.13 280.42L422.01 282.6L421.81 284.82L421.53 287.08L421.16 289.38L420.71 291.73L420.17 294.12L419.53 296.54L418.8 299.01L417.96 301.52L417.02 304.07L415.97 306.66L414.81 309.29L413.53 311.95L412.13 314.66L410.61 317.4L408.97 320.18L407.2 322.99L405.29 325.84L403.25 328.73L401.07 331.65L398.74 334.61L396.27 337.61L393.65 340.63L390.87 343.7L387.94 346.79L387.64 347.58L387.34 348.38L387.04 349.17L386.75 349.97L386.45 350.76L386.15 351.55L385.85 352.35L385.55 353.14L385.25 353.93L384.95 354.72L384.64 355.51L384.34 356.3L384.03 357.09L383.73 357.88L383.42 358.66L383.11 359.45L382.81 360.23L382.5 361.01L382.18 361.79L381.87 362.57L381.55 363.35L381.24 364.12L380.92 364.9L380.6 365.67L380.27 366.44L379.95 367.2L379.62 367.97L379.29 368.73L378.96 369.49L378.63 370.25L378.29 371.01L377.95 371.76L377.61 372.51L377.27 373.26L376.92 374.01L376.57 374.75L376.22 375.49L375.86 376.22L375.5 376.96L375.14 377.69L375.05 377.85L374.81 378.35L374.39 379.14L373.82 380.23L373.08 381.59L372.18 383.21L371.13 385.07L369.92 387.14L368.55 389.42L367.03 391.89L365.35 394.53L363.53 397.33L361.56 400.26L359.44 403.3L357.17 406.46L354.76 409.69L352.2 413L349.5 416.35L346.67 419.74L343.69 423.15L340.58 426.56L337.33 429.95L333.94 433.3L330.42 436.61L326.78 439.84L323 442.99L319.09 446.04L315.06 448.97L310.9 451.76L306.61 454.4L302.21 456.87L297.68 459.15L293.04 461.23L288.27 463.09L283.39 464.7L278.39 466.07L273.28 467.15L268.06 467.95L262.73 468.44L257.29 468.61L251.83 468.4L246.43 467.77L241.1 466.76L235.85 465.37L230.68 463.64L225.59 461.59L220.58 459.23L215.66 456.58L210.83 453.68L206.1 450.54L201.47 447.18L196.95 443.63L192.53 439.91L188.22 436.03L184.03 432.02L179.96 427.91L176.01 423.7L172.19 419.43L168.49 415.12L164.93 410.79L161.51 406.46L158.23 402.15L155.09 397.88L152.1 393.68L149.26 389.56L146.58 385.55L144.06 381.67L141.71 377.95L139.52 374.4L137.5 371.04L135.65 367.9L133.99 365L132.5 362.35L131.2 359.99L130.1 357.94L129.18 356.21L128.46 354.82L127.94 353.81L127.63 353.18L127.52 352.97L128.85 354.74L128.81 354.6L128.78 354.47L128.74 354.34L128.7 354.21L128.66 354.07L128.62 353.94L128.58 353.81L128.54 353.68L128.49 353.54L128.45 353.41L128.4 353.28L128.36 353.15L128.31 353.01L128.26 352.88L128.21 352.75L128.16 352.62L128.11 352.48L128.07 352.35L128.02 352.22L127.92 351.95L127.87 351.82L127.82 351.69L127.77 351.56L127.72 351.42L127.67 351.29L127.62 351.16L127.58 351.03L127.53 350.9L127.48 350.76L127.44 350.63L127.39 350.5L127.35 350.37L127.31 350.23L127.27 350.1L127.23 349.97L127.19 349.84L127.15 349.7L127.12 349.57L127.08 349.44L123.67 345.95L120.46 342.5L117.44 339.1L114.61 335.74L111.96 332.42L109.49 329.15L107.2 325.92L105.07 322.74L103.11 319.6L101.3 316.51L99.65 313.46L98.16 310.47L96.8 307.52L95.59 304.61L94.51 301.76L93.57 298.96L92.75 296.21L92.05 293.5L91.47 290.85L91 288.25L90.64 285.7L90.38 283.21L90.22 280.77L90.16 278.38L90.18 276.05L90.28 273.77L90.47 271.54L90.73 269.38L91.06 267.27L91.46 265.21L91.91 263.21L92.42 261.28L92.98 259.4L93.59 257.57L94.24 255.81L94.93 254.11L95.65 252.47L96.4 250.89L97.16 249.38L97.95 247.92L97.07 247.92L77.65 229.38L99.72 209.96L73.23 201.58L93.54 183.04L91.89 182.64L90.27 182.25L88.67 181.87L87.1 181.49L85.55 181.12L84.03 180.75L82.54 180.39L81.07 180.04L79.63 179.69L78.23 179.36L76.85 179.02L75.51 178.7L74.2 178.38L72.93 178.08L71.69 177.78L70.49 177.49L69.32 177.21L68.2 176.93L67.11 176.67L66.06 176.42L65.06 176.17L64.09 175.94L63.17 175.72L62.3 175.51L61.47 175.31L60.69 175.12L59.95 174.94L59.26 174.77L58.62 174.62L58.03 174.47L57.5 174.34L57.01 174.23L56.58 174.12L56.2 174.03L55.88 173.95L55.62 173.89L55.41 173.84L55.26 173.8L55.14 173.77L96.63 134.93L52.05 98.74L52.32 98.55L53.13 98.02L54.46 97.16L56.29 96L58.61 94.57L61.4 92.88L64.65 90.97L68.33 88.85L72.45 86.55L76.97 84.1L81.88 81.52L87.17 78.83L92.82 76.07L98.82 73.24L105.14 70.39L111.78 67.52L118.72 64.67L125.93 61.87L133.42 59.12L141.15 56.47L149.12 53.94L157.31 51.54L165.7 49.3L174.27 47.25L183.02 45.42L191.92 43.82L200.96 42.48L210.12 41.42L219.4 40.68L228.76 40.27L238.2 40.21L247.7 40.54L257.24 41.28L266.81 42.45L276.39 44.07L285.97 46.18L295.53 48.79L305.06 51.93L314.53 55.62L323.94 59.89L312.9 26.79L313.16 26.95L313.9 27.43ZM249.1 266.35L248.36 266.36L247.64 266.39L246.94 266.42L246.25 266.46L245.58 266.51L244.92 266.56L244.28 266.61L243.65 266.67L243.04 266.74L242.44 266.81L241.86 266.89L241.3 266.97L240.75 267.06L240.22 267.15L239.7 267.24L239.19 267.34L238.64 268.65L238.06 269.99L237.43 271.35L236.76 272.74L236.04 274.15L235.29 275.58L234.48 277.03L233.64 278.49L232.74 279.96L231.79 281.43L230.8 282.91L229.75 284.4L228.65 285.88L227.5 287.35L226.29 288.83L225.03 290.29L223.71 291.74L222.33 293.17L220.89 294.58L219.39 295.98L217.82 297.35L216.2 298.69L214.51 300L212.75 301.28L210.93 302.53L209.04 303.73L207.08 304.9L205.05 306.02L202.95 307.1L200.77 308.12L198.52 309.09L196.2 310.01L193.8 310.87L191.32 311.67L188.76 312.4L186.13 313.07L183.41 313.67L180.61 314.19L177.72 314.64L174.75 315.01L174.59 315.04L174.42 315.07L174.26 315.1L174.1 315.13L173.94 315.16L173.79 315.18L173.63 315.2L173.47 315.23L173.32 315.25L173.17 315.27L173.01 315.28L172.86 315.3L172.71 315.32L172.56 315.33L172.41 315.34L172.26 315.36L172.11 315.37L171.96 315.38L171.81 315.39L171.66 315.4L171.51 315.41L171.36 315.41L171.22 315.42L171.07 315.42L170.92 315.43L170.77 315.43L170.61 315.44L170.46 315.44L170.31 315.44L170.16 315.45L170.01 315.45L169.85 315.45L169.7 315.45L169.54 315.45L169.38 315.45L169.22 315.45L169.06 315.45L168.9 315.45L168.74 315.45L168.57 315.45L167.72 315.45L166.87 315.43L166.04 315.39L165.21 315.35L164.39 315.29L163.59 315.22L162.79 315.14L162 315.04L161.22 314.93L160.46 314.81L159.7 314.68L158.95 314.53L158.21 314.38L157.48 314.21L156.76 314.03L156.04 313.84L155.34 313.64L154.65 313.43L153.96 313.2L153.29 312.97L152.62 312.72L151.97 312.47L151.32 312.2L150.68 311.92L150.05 311.64L149.43 311.34L148.82 311.03L148.22 310.72L147.62 310.39L147.03 310.05L146.46 309.71L145.89 309.35L145.33 308.99L144.78 308.61L144.24 308.23L143.7 307.84L143.18 307.44L142.66 307.03L142.15 306.61L141.65 306.18L143.05 311.82L144.53 317.4L146.1 322.92L147.75 328.38L149.48 333.77L151.29 339.09L153.18 344.33L155.15 349.49L157.21 354.56L159.34 359.54L161.55 364.43L163.83 369.21L166.2 373.89L168.64 378.47L171.15 382.92L173.75 387.26L176.41 391.48L179.15 395.57L181.96 399.52L184.85 403.34L187.81 407.02L190.83 410.55L193.93 413.93L197.1 417.16L200.34 420.22L203.65 423.12L207.03 425.86L210.47 428.41L213.98 430.79L217.56 432.99L221.2 435L224.91 436.82L228.68 438.44L232.52 439.86L236.42 441.07L240.38 442.08L244.41 442.86L248.49 443.43L252.64 443.78L256.85 443.89L261.09 443.77L265.27 443.42L269.4 442.84L273.46 442.02L277.46 440.99L281.4 439.75L285.27 438.29L289.09 436.62L292.83 434.76L296.52 432.69L300.13 430.44L303.68 428L307.16 425.37L310.58 422.57L313.92 419.59L317.19 416.45L320.4 413.14L323.53 409.68L326.58 406.06L329.57 402.29L332.47 398.38L335.31 394.33L338.07 390.15L340.75 385.83L343.35 381.39L345.87 376.83L348.32 372.16L350.68 367.38L352.96 362.48L355.17 357.49L357.28 352.41L359.32 347.23L361.27 341.96L363.13 336.62L364.91 331.19L366.61 325.7L368.21 320.14L369.73 314.51L371.15 308.83L372.49 303.09L371.99 303.65L371.47 304.2L370.94 304.74L370.4 305.28L369.84 305.8L369.27 306.31L368.69 306.81L368.09 307.31L367.48 307.79L366.86 308.26L366.23 308.72L365.58 309.17L364.92 309.6L364.24 310.03L363.55 310.44L362.85 310.84L362.14 311.23L361.41 311.6L360.67 311.96L359.91 312.31L359.14 312.64L358.36 312.96L357.57 313.26L356.76 313.55L355.94 313.82L355.1 314.08L354.26 314.32L353.4 314.55L352.52 314.76L351.63 314.95L350.73 315.12L349.82 315.28L348.89 315.42L347.95 315.55L347 315.65L346.03 315.74L345.05 315.81L344.06 315.85L343.05 315.88L342.03 315.89L341.9 315.89L341.77 315.89L341.63 315.89L341.49 315.88L341.35 315.87L341.21 315.87L341.07 315.86L340.93 315.85L340.78 315.84L340.63 315.82L340.49 315.81L340.34 315.8L340.19 315.78L340.04 315.77L339.89 315.75L339.73 315.74L339.58 315.72L339.42 315.71L339.27 315.69L339.11 315.67L338.95 315.66L338.79 315.64L338.64 315.62L338.48 315.61L338.31 315.59L338.15 315.58L337.99 315.56L337.83 315.55L337.67 315.53L337.5 315.52L337.34 315.51L337.18 315.5L337.01 315.49L336.85 315.48L336.68 315.47L336.52 315.46L336.35 315.46L336.19 315.46L336.02 315.45L335.86 315.45L332.92 315.08L330.07 314.64L327.3 314.13L324.61 313.55L322.01 312.9L319.48 312.19L317.04 311.42L314.67 310.59L312.37 309.7L310.15 308.76L308.01 307.77L305.93 306.74L303.93 305.65L301.99 304.53L300.13 303.36L298.33 302.16L296.59 300.92L294.92 299.65L293.32 298.35L291.77 297.02L290.29 295.67L288.86 294.3L287.5 292.9L286.18 291.49L284.93 290.06L283.73 288.63L282.58 287.18L281.48 285.72L280.43 284.26L279.43 282.8L278.48 281.34L277.58 279.89L276.72 278.44L275.9 277L275.13 275.56L274.4 274.15L273.71 272.75L273.05 271.36L272.44 270L271.86 268.67L270.71 268.44L269.57 268.23L268.46 268.03L267.37 267.84L266.29 267.67L265.23 267.51L264.19 267.35L263.16 267.21L262.16 267.09L261.17 266.97L260.19 266.86L259.24 266.77L258.3 266.68L257.38 266.61L256.48 266.54L255.59 266.48L254.72 266.44L253.87 266.4L253.03 266.37L252.21 266.35L251.41 266.34L250.63 266.33L249.86 266.34L249.1 266.35ZM286.42 167.46L285.87 167.84L285.11 168.34L284.14 168.98L282.97 169.72L281.61 170.57L280.06 171.52L278.33 172.55L276.41 173.65L274.33 174.82L272.07 176.05L269.66 177.33L267.08 178.64L264.35 179.97L261.48 181.33L258.47 182.69L255.32 184.06L252.03 185.41L248.63 186.74L245.1 188.03L241.46 189.29L237.71 190.5L233.85 191.65L229.9 192.73L225.85 193.73L221.72 194.64L217.5 195.46L213.21 196.17L208.84 196.76L204.41 197.22L199.91 197.54L195.36 197.72L190.76 197.75L186.12 197.61L181.43 197.29L176.71 196.79L171.96 196.09L167.19 195.19L162.39 194.07L161.73 193.91L161.06 193.74L160.39 193.58L159.72 193.41L159.04 193.24L158.36 193.08L157.68 192.91L156.99 192.75L156.31 192.58L155.61 192.41L154.92 192.24L154.22 192.07L153.52 191.91L152.82 191.74L152.11 191.57L151.4 191.4L150.69 191.23L149.98 191.05L149.26 190.88L148.55 190.71L147.82 190.53L147.1 190.36L146.37 190.18L145.65 190.01L144.91 189.83L144.18 189.65L143.45 189.47L142.71 189.29L141.97 189.1L141.23 188.92L140.48 188.74L139.74 188.55L138.99 188.36L138.24 188.17L137.49 187.98L136.74 187.79L135.98 187.6L135.22 187.41L134.46 187.21L133.7 187.01L133.7 187.45L143.86 207.31L131.94 219.67L131.94 220.17L131.94 220.66L131.94 221.16L131.94 221.65L131.94 222.14L131.94 222.63L131.94 223.11L131.94 223.6L131.94 224.09L131.95 224.57L131.95 225.05L131.95 225.54L131.95 226.02L131.96 226.5L131.96 226.98L131.97 227.46L131.97 227.94L131.98 228.42L131.99 228.9L131.99 229.38L132 229.86L132.01 230.34L132.02 230.82L132.03 231.3L132.05 231.79L132.06 232.27L132.07 232.75L132.09 233.23L132.11 233.71L132.12 234.2L132.14 234.68L132.16 235.17L132.19 235.65L132.21 236.14L132.23 236.63L132.26 237.12L132.29 237.61L132.32 238.1L132.35 238.6L132.38 239.09L132.68 238.57L132.99 238.05L133.3 237.54L133.62 237.03L133.95 236.53L134.28 236.05L134.62 235.56L134.97 235.09L135.32 234.63L135.68 234.18L136.05 233.73L136.42 233.3L136.8 232.87L137.18 232.46L137.57 232.06L137.97 231.66L138.37 231.28L138.77 230.91L139.19 230.56L139.61 230.21L140.03 229.88L140.46 229.56L140.9 229.25L141.34 228.96L141.79 228.68L142.24 228.41L142.7 228.16L143.17 227.92L143.64 227.7L144.11 227.49L144.59 227.29L145.08 227.12L145.57 226.96L146.06 226.81L146.57 226.68L147.07 226.57L147.59 226.47L148.1 226.4L148.62 226.34L149.15 226.29L149.42 226.26L149.69 226.23L149.96 226.2L150.24 226.17L150.52 226.15L150.8 226.12L151.08 226.1L151.37 226.08L151.66 226.06L151.95 226.04L152.25 226.02L152.54 226L152.84 225.99L153.15 225.97L153.45 225.96L153.76 225.95L154.06 225.94L154.37 225.93L154.69 225.92L155 225.91L155.32 225.9L155.63 225.89L155.95 225.89L156.27 225.88L156.59 225.88L156.91 225.87L157.24 225.87L157.56 225.86L157.89 225.86L158.21 225.86L158.54 225.86L158.87 225.86L159.2 225.85L159.53 225.85L159.86 225.85L160.19 225.85L160.52 225.85L160.85 225.85L161.18 225.85L161.51 225.85L161.87 225.85L162.47 225.86L163.3 225.86L164.36 225.87L165.62 225.9L167.07 225.93L168.71 225.97L170.51 226.03L172.48 226.11L174.59 226.2L176.83 226.32L179.19 226.46L181.66 226.63L184.22 226.82L186.87 227.04L189.58 227.29L192.36 227.58L195.18 227.9L198.03 228.26L200.9 228.67L203.79 229.11L206.66 229.6L209.53 230.13L212.36 230.71L215.15 231.35L217.89 232.03L220.56 232.78L223.15 233.57L225.65 234.43L228.05 235.35L230.33 236.33L232.48 237.38L234.5 238.49L236.36 239.68L238.05 240.93L239.57 242.26L240.89 243.67L242.02 245.15L242.93 246.72L243.61 248.36L244.07 248.33L244.55 248.3L245.03 248.27L245.51 248.24L246.01 248.22L246.51 248.2L247.01 248.18L247.53 248.16L248.05 248.14L248.57 248.13L249.11 248.12L249.65 248.11L250.19 248.1L250.74 248.1L251.3 248.1L251.87 248.1L252.44 248.11L253.02 248.12L253.61 248.13L254.2 248.14L254.8 248.16L255.41 248.18L256.02 248.21L256.64 248.24L257.26 248.27L257.89 248.3L258.53 248.34L259.18 248.39L259.83 248.44L260.49 248.49L261.16 248.54L261.83 248.6L262.51 248.67L263.19 248.74L263.88 248.81L264.58 248.89L265.29 248.97L266 249.06L266.72 249.15L267.44 249.25L268 247.57L268.79 245.97L269.81 244.45L271.05 243.01L272.49 241.65L274.12 240.36L275.92 239.15L277.89 238L280 236.92L282.26 235.91L284.63 234.96L287.12 234.07L289.71 233.24L292.38 232.47L295.12 231.76L297.93 231.1L300.78 230.49L303.66 229.92L306.57 229.41L309.48 228.94L312.39 228.52L315.28 228.13L318.14 227.79L320.96 227.48L323.72 227.2L326.41 226.96L329.02 226.75L331.53 226.57L333.93 226.41L336.21 226.28L338.36 226.17L340.36 226.08L342.21 226.01L343.88 225.96L345.36 225.92L346.64 225.89L347.72 225.87L348.57 225.86L349.18 225.85L349.54 225.85L349.87 225.85L350.2 225.85L350.53 225.85L350.86 225.85L351.19 225.85L351.52 225.85L351.85 225.85L352.18 225.86L352.51 225.86L352.83 225.86L353.16 225.86L353.49 225.86L353.81 225.87L354.13 225.87L354.46 225.88L354.78 225.88L355.1 225.89L355.42 225.89L355.73 225.9L356.05 225.91L356.36 225.92L356.67 225.93L356.98 225.94L357.29 225.95L357.6 225.96L357.9 225.97L358.2 225.99L358.5 226L358.8 226.02L359.1 226.04L359.39 226.06L359.68 226.08L359.97 226.1L360.25 226.12L360.53 226.15L360.81 226.17L361.09 226.2L361.36 226.23L361.63 226.26L361.9 226.29L362.55 226.34L363.2 226.41L363.84 226.51L364.47 226.63L365.08 226.78L365.69 226.95L366.29 227.15L366.88 227.37L367.46 227.61L368.03 227.87L368.59 228.16L369.14 228.47L369.68 228.8L370.21 229.14L370.73 229.51L371.25 229.9L371.75 230.31L372.25 230.74L372.73 231.18L373.21 231.65L373.67 232.13L374.13 232.62L374.58 233.14L375.02 233.67L375.45 234.21L375.88 234.77L376.29 235.35L376.69 235.94L377.09 236.54L377.48 237.16L377.85 237.78L378.22 238.43L378.59 239.08L378.94 239.74L379.28 240.42L379.62 241.11L379.94 241.8L380.26 242.51L380.57 243.22L380.88 243.95L380.94 243.32L381 242.69L381.06 242.06L381.12 241.43L381.17 240.8L381.22 240.17L381.26 239.54L381.31 238.91L381.35 238.28L381.39 237.65L381.42 237.02L381.46 236.39L381.49 235.76L381.52 235.12L381.54 234.49L381.57 233.86L381.59 233.22L381.61 232.59L381.63 231.95L381.65 231.31L381.66 230.68L381.68 230.04L381.69 229.4L381.7 228.76L381.71 228.12L381.72 227.47L381.73 226.83L381.74 226.19L381.74 225.54L381.75 224.89L381.75 224.25L381.75 223.6L381.75 222.95L381.76 222.29L381.76 221.64L381.76 220.98L381.76 220.33L381.76 219.67L381.76 219.01L381.76 218.35L381.76 217.92L381.76 217.49L381.76 217.07L381.76 216.64L381.76 216.22L381.76 215.8L381.76 215.37L381.76 214.96L381.75 214.54L381.75 214.12L381.75 213.71L381.75 213.29L381.74 212.88L381.74 212.47L381.74 212.06L381.73 211.65L381.73 211.24L381.72 210.83L381.71 210.42L381.7 210.02L381.7 209.61L381.69 209.21L381.68 208.8L381.66 208.4L381.65 208L381.64 207.6L381.62 207.2L381.61 206.8L381.59 206.4L381.57 206L381.55 205.6L381.53 205.2L381.51 204.8L381.49 204.4L381.46 204.01L381.44 203.61L381.41 203.21L381.38 202.81L381.35 202.42L381.32 202.02L349.1 208.64L352.19 170.24L281.12 194.07L286.86 167.15L286.75 167.23L286.42 167.46Z" id="c1wf7sLXLo"></path>
    </defs>
    <g>
        <g>
            <g>
                <use xlink:href="#c1wf7sLXLo" opacity="1" fill="#000000" fill-opacity="1"></use>
                <g>
                    <use xlink:href="#c1wf7sLXLo" opacity="1" fill-opacity="0" stroke="#000000" stroke-width="1" stroke-opacity="0"></use>
                </g>
            </g>
        </g>
    </g>
</svg>